<svg width="100" height="100" viewBox="0 0 100 100" fill="none" xmlns="http://www.w3.org/2000/svg">
<path d="M30.6797 74.5781C27.9141 73.7969 25.8281 72.5078 24.4219 70.7109C23.0312 68.9297 22.3359 66.5703 22.3359 63.6328V58.9688C22.3359 55.1719 20.6797 53.2734 17.3672 53.2734V49.875C20.6797 49.875 22.3359 47.9844 22.3359 44.2031V39.3281C22.3672 36.4688 23.0625 34.1641 24.4219 32.4141C25.7969 30.6484 27.8828 29.3672 30.6797 28.5703L31.5703 31.2656C28.3047 32.3125 26.6719 35.0391 26.6719 39.4453V44.1797C26.6719 47.7266 25.3672 50.1953 22.7578 51.5859C25.3672 52.9922 26.6719 55.4844 26.6719 59.0625V63.8906C26.7188 68.1875 28.3516 70.8516 31.5703 71.8828L30.6797 74.5781Z" fill="black"/>
<path d="M68.3125 71.8828C71.4844 70.8672 73.125 68.2812 73.2344 64.125V58.9688C73.2344 55.3594 74.6484 52.8984 77.4766 51.5859C74.6484 50.3047 73.2344 47.8438 73.2344 44.2031V39.4453C73.2344 35.0391 71.6016 32.3125 68.3359 31.2656L69.2266 28.5703C71.9922 29.3516 74.0703 30.625 75.4609 32.3906C76.8516 34.1406 77.5547 36.4609 77.5703 39.3516V44.2734C77.5703 48.0078 79.2266 49.875 82.5391 49.875V53.2734C79.2266 53.2734 77.5703 55.1719 77.5703 58.9688V63.7031C77.5703 66.6406 76.8594 68.9922 75.4375 70.7578C74.0312 72.5234 71.9609 73.7969 69.2266 74.5781L68.3125 71.8828Z" fill="black"/>
<path d="M38.5039 65.1855C38.5039 64.623 38.668 64.1543 38.9961 63.7793C39.3359 63.4043 39.8398 63.2168 40.5078 63.2168C41.1758 63.2168 41.6797 63.4043 42.0195 63.7793C42.3711 64.1543 42.5469 64.623 42.5469 65.1855C42.5469 65.7363 42.3711 66.1992 42.0195 66.5742C41.6797 66.9375 41.1758 67.1191 40.5078 67.1191C39.8398 67.1191 39.3359 66.9375 38.9961 66.5742C38.668 66.1992 38.5039 65.7363 38.5039 65.1855ZM47.8906 65.1855C47.8906 64.623 48.0547 64.1543 48.3828 63.7793C48.7227 63.4043 49.2266 63.2168 49.8945 63.2168C50.5625 63.2168 51.0664 63.4043 51.4062 63.7793C51.7578 64.1543 51.9336 64.623 51.9336 65.1855C51.9336 65.7363 51.7578 66.1992 51.4062 66.5742C51.0664 66.9375 50.5625 67.1191 49.8945 67.1191C49.2266 67.1191 48.7227 66.9375 48.3828 66.5742C48.0547 66.1992 47.8906 65.7363 47.8906 65.1855ZM57.2773 65.1855C57.2773 64.623 57.4414 64.1543 57.7695 63.7793C58.1094 63.4043 58.6133 63.2168 59.2812 63.2168C59.9492 63.2168 60.4531 63.4043 60.793 63.7793C61.1445 64.1543 61.3203 64.623 61.3203 65.1855C61.3203 65.7363 61.1445 66.1992 60.793 66.5742C60.4531 66.9375 59.9492 67.1191 59.2812 67.1191C58.6133 67.1191 58.1094 66.9375 57.7695 66.5742C57.4414 66.1992 57.2773 65.7363 57.2773 65.1855Z" fill="#262626"/>
</svg>
